/* XPM */
static char *_a0c54d522e549cd986580ecb4588402ryIob91KHkrr8MSK[] = {
/* columns rows colors chars-per-pixel */
"16 16 160 2 ",
"   c None",
".  c #000B00",
"X  c #000D00",
"o  c #000E00",
"O  c #000F00",
"+  c #000E01",
"@  c #0C0D03",
"#  c #001000",
"$  c #001100",
"%  c #011100",
"&  c #001200",
"*  c #001300",
"=  c #021202",
"-  c #001400",
";  c #021400",
":  c #001600",
">  c #041701",
",  c #091706",
"<  c #001A00",
"1  c #001B00",
"2  c #011B00",
"3  c #001C00",
"4  c #031D00",
"5  c #001E00",
"6  c #021E01",
"7  c #081E01",
"8  c #0C1F02",
"9  c #0E1904",
"0  c #131A06",
"q  c #131E09",
"w  c #201806",
"e  c #022201",
"r  c #122205",
"t  c #152007",
"y  c #172108",
"u  c #1E270F",
"i  c #1F310B",
"p  c #1C2311",
"a  c #242F07",
"s  c #24200B",
"d  c #21250F",
"f  c #2F270F",
"g  c #3D360F",
"h  c #222E10",
"j  c #202A14",
"k  c #362D15",
"l  c #363A12",
"z  c #3B3913",
"x  c #3D3810",
"c  c #393C12",
"v  c #463A15",
"b  c #4A3A17",
"n  c #473C1D",
"m  c #4C3F1F",
"M  c #334019",
"N  c #414516",
"B  c #564C16",
"V  c #584D17",
"C  c #5E4F1A",
"Z  c #56551E",
"A  c #5B531C",
"S  c #625419",
"D  c #62521C",
"F  c #66561F",
"G  c #725C1E",
"H  c #5D5221",
"J  c #575228",
"K  c #51502D",
"L  c #52512C",
"P  c #5C592C",
"I  c #5E5C30",
"U  c #605720",
"Y  c #6C5420",
"T  c #775F28",
"R  c #615E3B",
"E  c #5F622A",
"W  c #736A28",
"Q  c #796C2C",
"!  c #716733",
"~  c #7A6D37",
"^  c #756F3E",
"/  c #7D733A",
"(  c #666545",
")  c #7F7742",
"_  c #896B24",
"`  c #8C6C24",
"'  c #8F6E25",
"]  c #80753F",
"[  c #907B33",
"{  c #957F39",
"}  c #A87420",
"|  c #A67927",
" . c #AD7B23",
".. c #A87927",
"X. c #A27D2B",
"o. c #B27E29",
"O. c #B47F28",
"+. c #827744",
"@. c #827845",
"#. c #827B44",
"$. c #AE812A",
"%. c #AC832B",
"&. c #B0822A",
"*. c #B6842B",
"=. c #B0822C",
"-. c #B4842D",
";. c #B5842D",
":. c #B5862E",
">. c #B98429",
",. c #BA852A",
"<. c #AB8432",
"1. c #A2883A",
"2. c #A68A3F",
"3. c #AE8C3B",
"4. c #B88E30",
"5. c #BA8F34",
"6. c #B6943C",
"7. c #BF973E",
"8. c #C19136",
"9. c #CDA13E",
"0. c #908A5A",
"q. c #A48C41",
"w. c #AA8E40",
"e. c #AF9847",
"r. c #BF9F4C",
"t. c #B39B50",
"y. c #B49A52",
"u. c #BDA14E",
"i. c #B8A158",
"p. c #C69C43",
"a. c #C49D47",
"s. c #CDA249",
"d. c #CCA448",
"f. c #C8A54C",
"g. c #CCA74E",
"h. c #D4A94D",
"j. c #C9A553",
"k. c #CDAA50",
"l. c #D3AA50",
"z. c #D0AE59",
"x. c #D6B356",
"c. c #D9B254",
"v. c #D9B256",
"b. c #D1B15D",
"n. c #CDAE62",
"m. c #CFB168",
"M. c #D3B462",
"N. c #D4B563",
"B. c #D4B763",
"V. c #D8B765",
"C. c #D2B46B",
"Z. c #DCBE6B",
"A. c #DBBF6F",
"S. c #DCBA72",
"D. c #E0BF6D",
"F. c #E2C069",
"G. c #E0C16B",
"H. c #E2C279",
"J. c #E0C47D",
"K. c #E9D08D",
/* pixels */
"                                ",
"          n.B.M.b.z.j.          ",
"      m.A.i.] I P / t.g.a.      ",
"    C.B.0.j # O . O p ) k.p.    ",
"    V.@., < < M E 5 u L ~ d.s.  ",
"  S.y.u # < l u.x.Q e.1.d 2.h.  ",
"  H.@.O e r 1.T b f.[ i # ! v.  ",
"  K.( # < > s k n f y e # L G.  ",
"  J.R O > = @ N r.v # 6 # L Z.  ",
"  D.+.# 6 z ' w F %.a < # ^ F.  ",
"  l.3.q N e.S x 3.G 8 5 y q.v.  ",
"  8.5.F H F < Z W 8 - # H 8.9.  ",
"     .<.D 0 O # # O 9 B %.4.    ",
"      } ..` C g x V _ | %.      ",
"        &.O.;.&.=.;.;.;.        ",
"              ,.,.              "
};
