/* XPM */
static char *_c648557649d4884b87877ee38d748c3p421F35lGztjkm9P[] = {
/* columns rows colors chars-per-pixel */
"32 32 199 2 ",
"   c None",
".  c #010400",
"X  c #090702",
"o  c #000C00",
"O  c #0B0B04",
"+  c #011301",
"@  c #0B1403",
"#  c #011B01",
"$  c #0C1B05",
"%  c #1C1607",
"&  c #101D0B",
"*  c #151808",
"=  c #221806",
"-  c #012300",
";  c #092603",
":  c #022A00",
">  c #112203",
",  c #1A2806",
"<  c #14250B",
"1  c #1C230B",
"2  c #1C2A0E",
"3  c #182808",
"4  c #063202",
"5  c #0B3A05",
"6  c #1C3109",
"7  c #1C2414",
"8  c #242509",
"9  c #2D220B",
"0  c #242B08",
"q  c #34310D",
"w  c #222710",
"e  c #362B11",
"r  c #263114",
"t  c #2D3814",
"y  c #3B3313",
"u  c #313517",
"i  c #3B3D21",
"p  c #413413",
"a  c #4C3B12",
"s  c #433C1C",
"d  c #3C4619",
"f  c #3D4522",
"g  c #484A15",
"h  c #574717",
"j  c #5C541D",
"k  c #555314",
"l  c #614D15",
"z  c #635316",
"x  c #67541C",
"c  c #625A1D",
"v  c #735C1C",
"b  c #7A5D1F",
"n  c #7C611E",
"m  c #474C26",
"M  c #574C20",
"N  c #4E5229",
"B  c #585526",
"V  c #675925",
"C  c #765C21",
"Z  c #6C6325",
"A  c #7B6224",
"S  c #7F692D",
"D  c #6F6439",
"F  c #7A6B36",
"G  c #966E1D",
"H  c #A46F1A",
"J  c #AC751D",
"K  c #A5781E",
"L  c #8B6D26",
"P  c #866E2C",
"I  c #85702B",
"U  c #8B732A",
"Y  c #997424",
"T  c #997629",
"R  c #837633",
"E  c #987B30",
"W  c #A37424",
"Q  c #A97525",
"!  c #AC7C26",
"~  c #AB7728",
"^  c #A5782B",
"/  c #AC7C2A",
"(  c #A67928",
")  c #B37D26",
"_  c #B27C29",
"`  c #A87E30",
"'  c #8C7B42",
"]  c #847C4B",
"[  c #817842",
"{  c #867C51",
"}  c #AB812C",
"|  c #AA8128",
" . c #B28425",
".. c #BB842A",
"X. c #B58A2C",
"o. c #BD8A2B",
"O. c #B6862C",
"+. c #BD9028",
"@. c #A48335",
"#. c #AC8532",
"$. c #AA8C3B",
"%. c #B28A33",
"&. c #BB8E34",
"*. c #B08E3C",
"=. c #B18731",
"-. c #BB9134",
";. c #B6933E",
":. c #BD953B",
">. c #C08B2C",
",. c #C4902E",
"<. c #C08B30",
"1. c #C29334",
"2. c #C2993C",
"3. c #CA9C3D",
"4. c #CC9E34",
"5. c #91854F",
"6. c #988844",
"7. c #9A8D53",
"8. c #928352",
"9. c #9E9050",
"0. c #BE9646",
"q. c #BD9A45",
"w. c #B89648",
"e. c #AC9A59",
"r. c #BF9D55",
"t. c #BF9F58",
"y. c #BDA659",
"u. c #928A65",
"i. c #A89966",
"p. c #BAA566",
"a. c #ADA478",
"s. c #C49C44",
"d. c #C69D46",
"f. c #CDA343",
"g. c #C2A24E",
"h. c #CBA54A",
"j. c #CFAB4E",
"k. c #D2A54A",
"l. c #D2AA49",
"z. c #D0A542",
"x. c #DAB14E",
"c. c #C5A355",
"v. c #CDAA56",
"b. c #CCAB5B",
"n. c #C6A857",
"m. c #D4AA53",
"M. c #D4AC5B",
"N. c #D8AF57",
"B. c #CEB25D",
"V. c #D6B254",
"C. c #DBB554",
"Z. c #D5B35B",
"A. c #DBB45D",
"S. c #DBBB5C",
"D. c #DAB854",
"F. c #E2BB56",
"G. c #E2BD5B",
"H. c #C2A461",
"J. c #C6AB63",
"K. c #C5AA6B",
"L. c #C9AD6E",
"P. c #C9AB60",
"I. c #D4AF64",
"U. c #CEB366",
"Y. c #D1B664",
"T. c #D4B964",
"R. c #DCBD63",
"E. c #D5B269",
"W. c #D9B56C",
"Q. c #D4BB6D",
"!. c #DEBE6B",
"~. c #CBB473",
"^. c #DAB473",
"/. c #D9BB7E",
"(. c #D5B874",
"). c #E1BC65",
"_. c #E8C15D",
"`. c #DFC165",
"'. c #DFC673",
"]. c #E4C364",
"[. c #E9C460",
"{. c #E3C56A",
"}. c #EDCA69",
"|. c #F5D169",
" X c #E5CA73",
".X c #E6CB79",
"XX c #F4D672",
"oX c #BEB389",
"OX c #DFC386",
"+X c #E4C682",
"@X c #E4C988",
"#X c #ECD584",
"$X c #EED886",
"%X c #F0D883",
"&X c #E8CF92",
"*X c #EBDA98",
"=X c #F7E496",
"-X c #FAEDAD",
";X c #FDF2B4",
/* pixels */
"                                                                ",
"                            J.p.H.H.                            ",
"                    L.K.J.b.n.b.m.c.c.c.c.r.                    ",
"                L.K.P.v.Z.`. XZ.R.R.Z.V.h.g.r.r.                ",
"              K.H.Z.S.Z.Y.p.p.6.9.e.y.Y.T.l.f.g.w.              ",
"            K.Z.'.$XU.8.N r & $ @ & 0 m 5.P.h.j.d.0.            ",
"          K.Z.C.=XoXm @ o o . o o . . o < f 7..Xx.f.s.          ",
"        ~.Y.S.(.u.2 o o o # + + + + # o . . < { T.l.d.s.        ",
"      /.E.R.Y.8.; . o - : - - ; d : - # o o 1 & D B.f.f.d.      ",
"      (.R.T.e.< o o + - # + $ [  XZ + - - B U.j & ' v.f.h.      ",
"    +XE.Z.n.f o + # - # o @ R }.|._.j + B `.|.$.@ u w.f.k.m.    ",
"    /.W.v.' @ o + # # + > P G.A.h._.v.I V._.;.q o @ D h.k.m.    ",
"    ^.).(.N o o # - o ; U F.C.P 8 @.F.G.G.@.d < @ o d g.V.m.    ",
"  &X^..X~.r o + : - $ > *.F.C X . = ;._.@.2 $ 5 + o < e.D.m.).  ",
"  @X^.-XoX$ o + - # - + 9 h X X % . 9 S w @ o 4 - . @ 7..XN.R.  ",
"  @XW.;Xa.@ . - # o + + o . X F n.e . . @ ; # 4 # . o ' =XA.).  ",
"  +XW.*Xi.@ . # # o + o . . = c.XXg.9 . + + o : - . + [ #XN.).  ",
"  +XI.+Xi.& o + : # # o * % . y s.V.#.8 o + + : - . & 5.'.M.).  ",
"  .XM.#X~.w . + - # + < P Y = . p =.2.Y 0 - # - + o 7 p.%XN.{.  ",
"    v.'..Xs + + # # < U <.O.a . O L >.>.z # # # + o t Q. XN.    ",
"    m.m.`.S $ o # 6 E f.1.z + @ A d.3.n > o : # o $ V `.A.x.    ",
"    k.s.h.#.t + 8 $.F.f.h - $ U F.x.n O + - - + o r @.h.h.x.    ",
"      &.:.:.C $ y D.V.k - + q C.G.n $ # # # + o # V 2.s.3.      ",
"      o.O.:.&.j $ h a + # + - c Z ; - # # o o # g w.0.s.4.      ",
"        J  .q.*.B $ o . + + # # - # + + + o + g G ( w.+.        ",
"          H / #.} C 0 o o o . o o o o o o 3 c } } }  .          ",
"          H H Q W / ^ V u $ o o o + $ , h T ! W @. .X.          ",
"              J Q ^ } J } T v z x v L #.-.( ^ W  .              ",
"                 ._ Q W =.-.&.X.&.&.X.=.^ ~ _ o.                ",
"                    <.) ) ~ Q ) ! ~ ! _ ..1.                    ",
"                          o.......o.1.                          ",
"                                                                "
};
