/* XPM */
static char *_67771319e8744b9f470d1eac9d555b0BCqZ82Sx4ip7a1lY[] = {
/* columns rows colors chars-per-pixel */
"64 64 237 2 ",
"   c None",
".  c #000300",
"X  c #0A0600",
"o  c #010C00",
"O  c #0C0B02",
"+  c #140D02",
"@  c #011301",
"#  c #0B1406",
"$  c #011B00",
"%  c #091B04",
"&  c #0C1C08",
"*  c #0B1509",
"=  c #131A03",
"-  c #161704",
";  c #171C14",
":  c #241B07",
">  c #012300",
",  c #0A2203",
"<  c #012B00",
"1  c #0C2B04",
"2  c #0D240A",
"3  c #0D2A09",
"4  c #1D2504",
"5  c #15270A",
"6  c #023300",
"7  c #023B01",
"8  c #0B3604",
"9  c #16340B",
"0  c #182B14",
"q  c #1D3416",
"w  c #292907",
"e  c #3A2A08",
"r  c #273508",
"t  c #38360A",
"y  c #2A2A14",
"u  c #283414",
"i  c #363918",
"p  c #352C13",
"a  c #303623",
"s  c #493409",
"d  c #563C0F",
"f  c #453B18",
"g  c #402E09",
"h  c #493E21",
"j  c #084A03",
"k  c #364617",
"l  c #304411",
"z  c #33482A",
"x  c #474209",
"c  c #52410D",
"v  c #474317",
"b  c #574515",
"n  c #5F551F",
"m  c #664C17",
"M  c #6A5218",
"N  c #775618",
"B  c #724F12",
"V  c #564F2E",
"C  c #66552B",
"Z  c #685832",
"A  c #795B2D",
"S  c #7D652B",
"D  c #776637",
"F  c #686826",
"G  c #776D41",
"H  c #885E18",
"J  c #855801",
"K  c #87631A",
"L  c #986819",
"P  c #9D711C",
"I  c #92650A",
"U  c #A26B1B",
"Y  c #A46A19",
"T  c #A9771B",
"R  c #B37D1D",
"E  c #A1660F",
"W  c #856827",
"Q  c #976B25",
"!  c #9B7424",
"~  c #967528",
"^  c #8D7538",
"/  c #987835",
"(  c #A46C24",
")  c #A56B24",
"_  c #AB7325",
"`  c #AA7C23",
"'  c #A4762B",
"]  c #A47A2C",
"[  c #AB7C2B",
"{  c #A67825",
"}  c #B37C22",
"|  c #B77C26",
" . c #A67D32",
".. c #867649",
"X. c #8E774C",
"o. c #B28418",
"O. c #AA812C",
"+. c #AA8126",
"@. c #B48425",
"#. c #BB8425",
"$. c #B2842C",
"%. c #B5892B",
"&. c #BC8B2B",
"*. c #BC8827",
"=. c #AD8434",
"-. c #AA8537",
";. c #B28533",
":. c #B48C33",
">. c #BC8D33",
",. c #B38B3A",
"<. c #BB8D3B",
"1. c #B68738",
"2. c #BD9334",
"3. c #BC953C",
"4. c #BD993D",
"5. c #B5913A",
"6. c #BD922E",
"7. c #C28B2B",
"8. c #C5932C",
"9. c #C7962A",
"0. c #C49534",
"q. c #C99A34",
"w. c #C4963B",
"e. c #C49A3C",
"r. c #CA9D3C",
"t. c #C79733",
"y. c #CA9634",
"u. c #CEA23D",
"i. c #CCA034",
"p. c #D2A33B",
"a. c #D5A436",
"s. c #99824B",
"d. c #958150",
"f. c #B48D47",
"g. c #B99547",
"h. c #B6955B",
"j. c #BB9B5C",
"k. c #B89757",
"l. c #A88D50",
"z. c #BCA15A",
"x. c #B89B68",
"c. c #A78E6C",
"v. c #BCA369",
"b. c #BBA677",
"n. c #9C826B",
"m. c #C59C44",
"M. c #C39C4C",
"N. c #CA9A48",
"B. c #C29D56",
"V. c #C6A244",
"C. c #CCA343",
"Z. c #C6A34C",
"A. c #CBA54A",
"S. c #CCAA4B",
"D. c #CBAA47",
"F. c #D2A443",
"G. c #D4AA44",
"H. c #D3AC4C",
"J. c #D7AB47",
"K. c #DBB24D",
"L. c #D7B44D",
"P. c #C4A253",
"I. c #CBA452",
"U. c #CCAC54",
"Y. c #CBAB5C",
"T. c #C6A25B",
"R. c #D3AD54",
"E. c #D3AA5C",
"W. c #D5A954",
"Q. c #CDB35C",
"!. c #D4B255",
"~. c #DBB353",
"^. c #DEB955",
"/. c #D4B55B",
"(. c #DCBA5C",
"). c #D7B95C",
"_. c #E0B64A",
"`. c #E2BB54",
"'. c #E2BD5C",
"]. c #C49D65",
"[. c #CAAC63",
"{. c #C6A868",
"}. c #D2AB6A",
"|. c #CDB36C",
" X c #CCB165",
".X c #DCBD62",
"XX c #D4BA6C",
"oX c #DBBD69",
"OX c #D5B665",
"+X c #C5A977",
"@X c #D3AD79",
"#X c #CBB375",
"$X c #D9B976",
"%X c #E2BD65",
"&X c #E0BB78",
"*X c #E5C15C",
"=X c #ECC55D",
"-X c #E7C156",
";X c #F1CA5F",
":X c #DEC264",
">X c #DCC36B",
",X c #DBC477",
"<X c #E3C263",
"1X c #E9C563",
"2X c #ECCA64",
"3X c #E1C46B",
"4X c #E5C96C",
"5X c #ECCC6B",
"6X c #F2CE67",
"7X c #F5D26B",
"8X c #F8D56D",
"9X c #E5CC74",
"0X c #E3CC79",
"qX c #E8CA75",
"wX c #ECD37B",
"eX c #EDD174",
"rX c #F4D777",
"tX c #B9A583",
"yX c #C5AC83",
"uX c #D7B782",
"iX c #CCB082",
"pX c #DBC788",
"aX c #DDCE91",
"sX c #EAD585",
"dX c #F2DD88",
"fX c #E8D693",
"gX c #EAD48E",
"hX c #F8E289",
"jX c #F7E799",
"kX c #FAECA2",
"lX c #F5E7A5",
"zX c #F6EBB9",
"xX c #FCF3B8",
"cX c #D8C1A6",
"vX c #FFFBCC",
"bX c #FDF5C3",
"nX c #FAF2CE",
/* pixels */
"                                                                                                                                ",
"                                                                                                                                ",
"                                                                                                                                ",
"                                                  $X[.T.j.k.h.h.h.h.k.k.k.B.Y.                                                  ",
"                                            |.T.j.x.v.{.b.[.|.Y. X[.Y.{.{.x.k.l.g.B.                                            ",
"                                      0X{.j.x.b.[.|.!.H.I.r.M.C.J.G.u.Z.r.R.R.Q.v.k.l.g.U.                                      ",
"                                  pXT.x.v.+X/.Q.p.L.K.).oX3X).>X4X).).OXI.C.F.p.H.H. Xj.l.f.P.                                  ",
"                                [.h.b. X>XC.M.U.>X>X/.9XjX0XZ.Q.9XU.).>XOX>X4X).H.m.e.S.S.v.f.g.                                ",
"                            0Xj.x.+XoXK.J.).:XS./.3X>XoXxXgXZ.Q.,X>XfX,X.X).>XS.).Q.!.4.u.G.P.k.1.m.                            ",
"                          oXj.tX/./.G.).9X:XQ.g.U.pXz.x.x.d.D D D D s.s.l.[.XXXX:X>XS.S.H.u.G.u.v.f.f.                          ",
"                        OXx.+X).H.R.sX>X:X!.pX+Xl.G v 4 $ > > > $ $ < % 5 l C s.#X,X>X).u.V.F.w.p.Z.f.<.                        ",
"                      |.x.{..XJ.3XhXjXfX#X+XX.h 1 > $ o o o o . o o o o o $ > 1 u D iX Xg.C.(.!.e.r.Z.g.1.                      ",
"                    XXx.+X*Xp.<XhXkXxXnXc.i > > @ . . . . o o . o o o . . . @ @ % z z D x.sXwX'.!.r.p.V.g.<.                    ",
"                  ,Xx.#X^.J.).D.sXnXcXZ , $ @ o . . o o . o $ $ . o . . . . . . o * 2 2 i c.kXwX'.L.u.p.M.g.w.                  ",
"                sX].yX^.S.>X).:XzXtXu > % . . . . o > $ $ $ o o o @ @ o @ < @ . . . o @ 1 u ..lXeXL.C.C.a.M.f.m.                ",
"                }.+X^.S.).Q.,XpXc.4 > @ o o . o o o @ @ @ o o > @ o $ o o @ @ o . . . . X 2 0 Z ,XQ.:XC.r.a.M.<.W.              ",
"              $X+XXX'.4X).D.pXX.0 % o . o @ @ 6 > > > @ < $ @ > < $ > < < < $ o . o o @ . X 3 2 V |.Y./.U.r.p.M.m.              ",
"            fX{.iX_.'.9XQ. Xc.q > o . o . o < 6 6 6 < < > > 6 , G F 6 < < $ > > $ o o o y i @ % & D 0XU.U.D.a.A.m.N.            ",
"            $X@X~.K.:X X,XtXl > @ o @ . o $ $ $ > > $ $ @ o # ..rX5Xn @ @ o < < > @ $ a #XOXe o , & X./.A.A.G.a.B.m.            ",
"          fX+X}.OX:XU.XX#XV 7 @ . o o o @ $ $ 6 @ @ o o @ # ..rX8X8X.Xb o @ @ > 7 $ i XXrX8XI.w o , y j./.C.A.F.F.M.H.          ",
"          $X@XoXK.,X[.Y.X.1 > o . $ @ $ < > > $ o o . @ 3 ^ 6X7X7X6X7X!.x > @ o > k U.8X7X6X7X,.+ O 2 V Y.M.m.F.J.B.A.          ",
"        lX@X}.K.(.4.Y.$Xi $ o o o $ $ $ < < $ @ @ o $ - / 1X6X5X5X2X=X;XC.l % . t I.2X5X2X2X_.N O o ; ; s.N.>.S.p.F.I.~.        ",
"        gX@X&X5XR.3.I...% @ . o o $ $ $ < @ o @ > $ 1 ~ -X1X1X1X1X1X*X*X*X4.e e m.2X1X1X1XG.M = o . @ 2 v OXA.m.J.J.I.K.        ",
"        $XiXW.4XXXk.[.i $ o o o > $ @ < $ @ o $ > 4 ! `.%X*X<X'. .m.*X'.'.'.g.m.1X<X%X*XN.M u * @ @ X & 0 l.Z.m.J.J.E.W.        ",
"      lX$X}.'.oXE.aXh.& @ . . o o @ > > o o > @ w ! `.'.'.'.~.L : s N.`._.^.'.'.'.(.'.0.m v l o @ , X o 0 Z !.V.W.K.F.W.%X      ",
"      fX@XuX'.fX$XXXZ & . o @ . o < > $ . . @ r O.^.^.'.'.J.H + . . s r.`.`.(.'.'.`.0.s 2 z 9 & @ @ . o 5 a [.Q.%XW.W.E.'.      ",
"      gX@XW..X>X>XXXi 1 o o @ @ 6 < < > @ o @ g G.*X'.*XK.N + . . . . d G.*X'.*X*X2.x , @ 9 8 8 # @ o . * 0 l.).H.!.p.E.'.      ",
"      qXuX%XsXaXpXv.4 @ o @ . o > 7 $ $ 9 j $ @ b ~.5X~.B X . . . . . . b ~.2X5X2.s 1 < @ $ j j % @ o . % 3 ^ 9X).).K.I.'.      ",
"      qXiXW.hXvXvXc.& @ . $ o @ < 7 $ @ > < @ @ @ M C.m X . . . . . . . . m %Xw.e # & o . o , 7 7 % . . @ 3 V dXoXW._.E.'.eX    ",
"    xXuX@X`.lXvXbX..* @ . o $ > > $ @ @ < > @ o @ O e X . . . . s + . . . X m e # # # @ o o < 8 < o . . . 2 v sXjXsX~.N.E.eX    ",
"    lX&X@XW.lXvXbXZ 2 O . o $ > > > o o @ @ @ @ @ . . . . . . S 4X^ + . . . . . * & & 7 > @ < j , o o . . @ p 0XkXdX'.OX%X5X    ",
"    lX&X}.K.kXvXzXC 2 o . o $ $ < @ . . o o @ o o . . . . X W wXhX7XW X . . . . @ O * 6 , @ < 8 < . o . . o y 0XkXdXW.N.OXeX    ",
"    jX&XuX3XlXzXzXC * o . . @ > < @ . o @ @ @ o . . . . . h 5XrXrXrX5XS X . . . @ @ & # . . 7 1 1 @ . . @ & y ,XkXdX'.E.%X5X    ",
"    lX&X].R.,XpXfXC % o o o @ $ 6 $ . o $ @ o o o . . . . + / 2X2X5X2X'.N X . o @ @ @ @ o . > > < 6 . . . > y XX,X>X'.T.%X5X    ",
"    lX&X@X~.$XpXaXD 9 o O o o > $ 6 @ o $ @ o o o . . . . . + / ^.^.(.^.H.B . @ @ o o @ @ o > 7 6 $ . . o 0 i >X,XoXS.N.%XwX    ",
"      $X}.R.0XaXlX^ 0 * . . o > > 6 $ $ < $ @ @ o y d X . . X + / G.S.H.F.r.m @ o o @ @ o @ 6 > > @ . . @ a Z 0XpX>X.XOX'.wX    ",
"      %X}.N.wXkXlXf.; * o . . @ < > > o o $ @ @ y f.4.c . . . . ;  .t.w.m.0.2.b o @ > > @ $ 6 $ o @ @ . * q A hXjXwXW.N.1X      ",
"      3X}.[..XjXjX[.: @ o . . $ $ < @ o $ < $ i -.0.&.*.d . . . . :  .&.>.2.*.*.c @ j < @ $ $ @ @ @ o . 0 y X.hXjXqX~.}.=X      ",
"      qX}.m.(.dXjX3Xf * o o $ o @ < $ @ @ @ i -.&.*.@.*.$.: . . . . p >.*.&.*.*.@.t < > @ $ > < $ o . . 3 u z.dXsX%XM.W.2X      ",
"      qXW.E.H.qXsX5XA ; & @ @ o > < $ $ o i -.&.2.0.&.*.m X . . . + S 6.6.2.*.*.! w @ o $ 6 > @ @ o o @ & i .XdXwX).N.'.2X      ",
"        ~.M.W.3X9X:X,.y 3 @ @ @ < > > > f 5.0.r.e.w.&.m @ . o o * W r.w.e.e.t.! r $ o @ < > o o @ . o & 5 S 4XeX3X<XB.`.eX      ",
"        `.N.w.!.:X.XA.b 0 @ . o $ @ < v 4.u.F.C.p.6.b # @ @ @ = ~ C.C.F.F.u.L 4 @ @ o @ < 6 > $ o o * 0 i g.4X:X/.M.F.-X        ",
"        '.F.M.G.U.V.C.~ 0 3 o o @ @ v m.K.~.~.K.0.c @ > @ o = ~ K.K.~.~.p.K - @ o o o @ 7 < $ @ . @ q 0 M m.Z.U.U.F.K.`.        ",
"          F.1.1.m.S.2.$.b q * @ o c G.`.'.'.'.2.s o $ 6 > = ~ -X`.'.'.K.H - . . o > < > < @ @ o . o 0 v 1.H.u.V.).<._.'.        ",
"          F.0.>.V.3.%.%.' p @ @ - ;.;X;X1X1X2.x $ @ @ $ o W ;X=X1X6X_.N = o o @ $ > 6 $ > @ $ o o $ % A 2.V.e.Z.1.a._.          ",
"            y.[ e.u.V.V.` N 0 * . g m.7X7X>.t < 7 7 @ o . g C.7X7X`.B # @ % 6 6 > > @ $ @ o @ . * < c >.D.2.g.Z.y.a.~.          ",
"            w.| _ m.m.+.T ,.m 2 $ @ g N.;.w @ $ > > @ $ > $ x ~.'.B O > 6 > > @ o $ @ o o o o % 6 l ,.3.:.2.OX<.9.J.            ",
"              7.T @.4.:.Q.5. .b 3 @ . g w . o @ $ @ o $ > 6 > c m , > 7 > > o @ $ $ o . . o @ < r O.g.).3.B.f.o.a.              ",
"              &.} Y *.2.f.U.g.-.f 1 # @ o o o . @ $ @ $ > $ @ @ 6 6 < > @ $ @ @ > @ o o . @ , r Q P P 5.g.k.%.9.i.              ",
"                @.Y L O.3.g.O.Z.g.m 5 & o . . . o @ o @ @ > $ > $ $ o @ @ @ @ o @ . o @ $ < i -.=.J I O.g.` o.i.                ",
"                  } E Y 5.] 4.~ 3.5.S y $ @ . . o o . o . o . o o . @ o . o o . . . o % > b ;.O.m.P P z.! o.q.                  ",
"                    R L P :.;.! %.K %.! v 1 % @ O . . o . o . . @ . o o . . . . o @ 8 r W w.O.O.O.O.z.Q o.6.%.                  ",
"                    L ` E Y $.[ L [ ( 2.>.W t 0 z > % @ . . . o . . o o o o o @ $ 4 M ;.0.L ` ( ~ g.( o.6.-.                    ",
"                      L T Y L ` ' ' O.P $.<.<.Q b 9 5 @ $ $ @ @ & o , $ > < 8 t N =.>.>.` L I  .-.P T 6.=.                      ",
"                          } T Y ( ;.] L [ ;.{ $.>.[ H d e w : 4 i - w t c N ! >.e.2.` L ;.!  .) U o.2.-.                        ",
"                            } R U U ' ;. .,.I E ` N.e.r.w.:.` _ ` [ $.0.>.r.G.%.e.:.:.K  .;.Q T *.0.                            ",
"                              @.#.} U U [ ' L L O.D.:.e.6.e.@.&.G.+.O.H.+.:.u.:.!  . .1.Q Y | 9.2.                              ",
"                                  &.7.| ) Y [ [ =.O.{ ,.4.+.P $.D.` O.4.+.+.~ O.[ ) _ L #.8.q.                                  ",
"                                    >.0.8.7._ ) Q #.[ [ ! ` $.O.O.[ ' [ [ >.] { ) _ 7.q.q.w.                                    ",
"                                          y.y.8.| } ) ( ( ) | ) $._ ( _ Y _ _ *.8.p.u.u.                                        ",
"                                              r.r.y.8.7.#.| | R } R #.7.7.y.a.i.u.                                              ",
"                                                        t.y.9.q.y.y.y.q.                                                        ",
"                                                                                                                                ",
"                                                                                                                                "
};
